<svg width="24" height="24" viewBox="0 0 24 24" fill="currentColor" xmlns="http://www.w3.org/2000/svg">
<path d="M20.3137 4.59304C18.7606 3.8548 17.1066 3.31084 15.3641 3C15.1495 3.38855 14.897 3.91956 14.7328 4.34696C12.8894 4.06203 11.0586 4.06203 9.25302 4.34696C9.07625 3.91956 8.82372 3.38855 8.60908 3C6.86664 3.31084 5.2126 3.8548 3.65956 4.59304C0.528233 9.43693 -0.31773 14.1643 0.0989384 18.8139C2.18228 20.407 4.18986 21.3654 6.1722 22C6.66462 21.3136 7.09392 20.5753 7.47271 19.8112C6.75301 19.5392 6.07119 19.1895 5.42724 18.788C5.60401 18.6585 5.76815 18.516 5.9323 18.3865C9.88432 20.2774 14.1646 20.2774 18.0662 18.3865C18.2303 18.529 18.3945 18.6585 18.5712 18.788C17.9273 19.1895 17.2328 19.5262 16.5258 19.8112C16.9046 20.5753 17.3338 21.3136 17.8263 22C19.8086 21.3654 21.8288 20.407 23.8995 18.8139C24.392 13.4131 23.0536 8.73755 20.3389 4.59304H20.3137ZM8.00301 15.9646C6.81614 15.9646 5.84391 14.8378 5.84391 13.452C5.84391 12.0661 6.79089 10.9394 8.00301 10.9394C9.21514 10.9394 10.1747 12.0661 10.1621 13.452C10.1621 14.8248 9.21514 15.9646 8.00301 15.9646ZM15.9702 15.9646C14.7833 15.9646 13.8111 14.8378 13.8111 13.452C13.8111 12.0661 14.7581 10.9394 15.9702 10.9394C17.1823 10.9394 18.1419 12.0661 18.1293 13.452C18.1293 14.8248 17.1823 15.9646 15.9702 15.9646Z"/>
</svg>
