<svg width="20" height="20" viewBox="0 0 20 20" fill="currentColor" xmlns="http://www.w3.org/2000/svg">
<g clip-path="url(#clip0_939_830)">
<path fill-rule="evenodd" clip-rule="evenodd" d="M18.1275 0.802522C17.0574 -0.267506 15.3226 -0.267509 14.2525 0.802522L1.32199 13.7331C0.939488 14.1156 0.67876 14.6027 0.572676 15.1331L0.036488 17.8141C-0.219142 19.0922 0.907759 20.2192 2.18591 19.9635L4.86684 19.4273C5.39728 19.3213 5.88445 19.0605 6.26695 18.678L19.1975 5.74747C20.2675 4.67744 20.2675 2.94259 19.1975 1.87255L18.1275 0.802522ZM15.5441 2.09416C15.9009 1.73749 16.4791 1.73749 16.8359 2.09416L17.9058 3.1642C18.2626 3.52087 18.2626 4.09915 17.9058 4.45583L15.4658 6.89587L13.1042 4.5342L15.5441 2.09416ZM11.8125 5.82584L2.61363 15.0247C2.48613 15.1522 2.39923 15.3146 2.36386 15.4914L1.82767 18.1723L4.50861 17.6361C4.68542 17.6007 4.84781 17.5139 4.97531 17.3864L14.1741 8.18751L11.8125 5.82584Z"/>
</g>
<defs>
<clipPath id="clip0_939_830">
<rect width="20" height="20" fill="white"/>
</clipPath>
</defs>
</svg>
