<svg width="24" height="24" viewBox="0 0 24 24" fill="currentColor" xmlns="http://www.w3.org/2000/svg">
<path d="M11.791 0C5.27701 0 0 5.27701 0 11.791C0 17.008 3.37544 21.4157 8.06183 22.9774C8.65138 23.0803 8.87219 22.7277 8.87219 22.4179C8.87219 22.1371 8.85825 21.2088 8.85825 20.2216C5.8955 20.7672 5.12908 19.4991 4.89326 18.8367C4.76035 18.4969 4.1858 17.4507 3.68522 17.1709C3.27254 16.949 2.68192 16.4045 3.67022 16.3895C4.59849 16.3745 5.262 17.2438 5.48281 17.5986C6.544 19.3812 8.23869 18.8806 8.91721 18.5708C9.02011 17.8044 9.3299 17.2888 9.66862 16.994C7.04459 16.6993 4.30371 15.682 4.30371 11.1714C4.30371 9.88943 4.76035 8.82824 5.51283 8.00287C5.39385 7.7081 4.98116 6.50006 5.63074 4.87826C5.63074 4.87826 6.61797 4.56955 8.87219 6.08737C9.83205 5.82106 10.8238 5.68726 11.8199 5.68969C12.8232 5.68969 13.8255 5.82154 14.7677 6.08737C17.023 4.55454 18.0102 4.87826 18.0102 4.87826C18.6587 6.50006 18.2471 7.7081 18.1292 8.00287C18.8806 8.82824 19.3372 9.8755 19.3372 11.1714C19.3372 15.697 16.5814 16.6993 13.9573 16.994C14.385 17.3628 14.7538 18.0702 14.7538 19.1754C14.7538 20.7522 14.7387 22.0202 14.7387 22.4179C14.7387 22.7277 14.9596 23.0953 15.5491 22.9774C20.2066 21.4157 23.582 16.994 23.582 11.791C23.582 5.27701 18.3061 0 11.791 0Z"/>
</svg>
