<svg width="34" height="37" viewBox="0 0 34 37" fill="currentColor" xmlns="http://www.w3.org/2000/svg">
<path d="M9.44444 18.5V14.8H13.2222V18.5H9.44444ZM20.7778 18.5V14.8H24.5556V18.5H20.7778ZM0 37V22.2H1.88889V14.8C1.88889 12.765 2.28241 10.8456 3.06944 9.04187C3.85648 7.23813 4.93472 5.66563 6.30417 4.32438C7.67361 2.98312 9.27917 1.92708 11.1208 1.15625C12.9625 0.385417 14.9222 0 17 0C19.0778 0 21.0375 0.385417 22.8792 1.15625C24.7208 1.92708 26.3264 2.98312 27.6958 4.32438C29.0653 5.66563 30.1435 7.23813 30.9306 9.04187C31.7176 10.8456 32.1111 12.765 32.1111 14.8V22.2H34V37H0ZM3.77778 33.3H7.55556V25.9H3.77778V33.3ZM11.3333 33.3H15.1111V25.9H11.3333V33.3ZM5.66667 22.2H15.1111V3.83875C12.4037 4.27042 10.1528 5.51146 8.35833 7.56187C6.56389 9.61229 5.66667 12.025 5.66667 14.8V22.2ZM18.8889 22.2H28.3333V14.8C28.3333 12.025 27.4361 9.61229 25.6417 7.56187C23.8472 5.51146 21.5963 4.27042 18.8889 3.83875V22.2ZM18.8889 33.3H22.6667V25.9H18.8889V33.3ZM26.4444 33.3H30.2222V25.9H26.4444V33.3Z" fill="currentColor"/>
</svg>
