<svg width="50" height="50" viewBox="0 0 50 50" fill="none" xmlns="http://www.w3.org/2000/svg">
<g clip-path="url(#clip0_30_1905)">
<path d="M11.1111 41.6667H19.4444V30.5556H22.2222V23.6111C22.2222 22.0833 21.6782 20.7755 20.5903 19.6875C19.5023 18.5995 18.1944 18.0556 16.6667 18.0556H13.8889C12.3611 18.0556 11.0532 18.5995 9.96528 19.6875C8.87732 20.7755 8.33333 22.0833 8.33333 23.6111V30.5556H11.1111V41.6667ZM15.2778 15.2778C16.25 15.2778 17.0718 14.9421 17.7431 14.2708C18.4144 13.5995 18.75 12.7778 18.75 11.8056C18.75 10.8333 18.4144 10.0116 17.7431 9.34028C17.0718 8.66898 16.25 8.33333 15.2778 8.33333C14.3056 8.33333 13.4838 8.66898 12.8125 9.34028C12.1412 10.0116 11.8056 10.8333 11.8056 11.8056C11.8056 12.7778 12.1412 13.5995 12.8125 14.2708C13.4838 14.9421 14.3056 15.2778 15.2778 15.2778ZM27.7778 22.2222H41.6667L34.7222 11.1111L27.7778 22.2222ZM34.7222 38.8889L41.6667 27.7778H27.7778L34.7222 38.8889ZM5.55556 50C4.02778 50 2.71991 49.456 1.63194 48.3681C0.543981 47.2801 0 45.9722 0 44.4444V5.55556C0 4.02778 0.543981 2.71991 1.63194 1.63194C2.71991 0.543981 4.02778 0 5.55556 0H44.4444C45.9722 0 47.2801 0.543981 48.3681 1.63194C49.456 2.71991 50 4.02778 50 5.55556V44.4444C50 45.9722 49.456 47.2801 48.3681 48.3681C47.2801 49.456 45.9722 50 44.4444 50H5.55556ZM5.55556 44.4444H44.4444V5.55556H5.55556V44.4444Z" fill="currentColor"/>
</g>
<defs>
<clipPath id="clip0_30_1905">
<rect width="50" height="50" fill="white"/>
</clipPath>
</defs>
</svg>
