<svg width="34" height="34" viewBox="0 0 34 34" fill="currentColor" xmlns="http://www.w3.org/2000/svg">
<path d="M0 34V30.6C1.07667 30.6 1.87708 30.3167 2.40125 29.75C2.92542 29.1833 4.02333 28.9 5.695 28.9C7.36667 28.9 8.4575 29.1833 8.9675 29.75C9.4775 30.3167 10.2708 30.6 11.3475 30.6C12.4242 30.6 13.2175 30.3167 13.7275 29.75C14.2375 29.1833 15.3283 28.9 17 28.9C18.615 28.9 19.7129 29.1833 20.2938 29.75C20.8746 30.3167 21.675 30.6 22.695 30.6C23.7717 30.6 24.565 30.3167 25.075 29.75C25.585 29.1833 26.6758 28.9 28.3475 28.9C30.0192 28.9 31.11 29.1833 31.62 29.75C32.13 30.3167 32.9233 30.6 34 30.6V34C32.3567 34 31.2658 33.7167 30.7275 33.15C30.1892 32.5833 29.3958 32.3 28.3475 32.3C27.2992 32.3 26.5058 32.5833 25.9675 33.15C25.4292 33.7167 24.3383 34 22.695 34C21.0517 34 19.9538 33.7167 19.4013 33.15C18.8488 32.5833 18.0483 32.3 17 32.3C15.9233 32.3 15.13 32.5833 14.62 33.15C14.11 33.7167 13.0192 34 11.3475 34C9.67583 34 8.585 33.7167 8.075 33.15C7.565 32.5833 6.77167 32.3 5.695 32.3C4.64667 32.3 3.85333 32.5833 3.315 33.15C2.77667 33.7167 1.67167 34 0 34ZM11.3475 26.35C9.7325 26.35 8.64167 26.0667 8.075 25.5C7.50833 24.9333 6.715 24.65 5.695 24.65C4.70333 24.65 3.91 24.9333 3.315 25.5C2.72 26.0667 1.615 26.35 0 26.35V22.95C1.07667 22.95 1.87 22.6667 2.38 22.1C2.89 21.5333 3.98083 21.25 5.6525 21.25C5.8225 21.25 5.9925 21.2571 6.1625 21.2712C6.3325 21.2854 6.48833 21.3067 6.63 21.335L5.015 15.385L2.6775 18.445L0 16.32L13.2175 0L32.81 7.48L31.5775 10.6675L28.0075 9.2225L31.45 22.015C31.8467 22.2417 32.2363 22.4542 32.6188 22.6525C33.0013 22.8508 33.4617 22.95 34 22.95V26.35C32.385 26.3217 31.2942 26.0312 30.7275 25.4788C30.1608 24.9263 29.3675 24.65 28.3475 24.65C27.2708 24.65 26.4775 24.9333 25.9675 25.5C25.4575 26.0667 24.3667 26.35 22.695 26.35C21.08 26.35 19.9821 26.0667 19.4013 25.5C18.8204 24.9333 18.02 24.65 17 24.65C15.9233 24.65 15.13 24.9333 14.62 25.5C14.11 26.0667 13.0192 26.35 11.3475 26.35ZM11.3475 22.95C12.1975 22.95 12.8562 22.7517 13.3238 22.355C13.7913 21.9583 14.5067 21.6467 15.47 21.42L13.8975 15.64L20.485 13.8975L22.865 22.9075C23.7433 22.8508 24.4375 22.5888 24.9475 22.1213C25.4575 21.6537 26.3783 21.3775 27.71 21.2925L24.055 7.65L14.3225 4.08L7.65 12.07L10.5825 22.865C10.6958 22.8933 10.8162 22.9146 10.9438 22.9288C11.0712 22.9429 11.2058 22.95 11.3475 22.95Z" fill="currentColor"/>
</svg>
