<svg width="40" height="40" viewBox="0 0 40 40" fill="none" xmlns="http://www.w3.org/2000/svg">
<path d="M2.68723 40C1.78106 40 1.06565 39.713 0.541024 39.1389C0.0163947 38.5648 -0.126686 37.9444 0.111782 37.2778L12.846 1.55556C13.0367 1.07407 13.3706 0.694444 13.8475 0.416667C14.3245 0.138889 14.8729 0 15.493 0C16.4468 0 17.1861 0.287037 17.7107 0.861111C18.2353 1.43519 18.3784 2.05556 18.14 2.72222L16.7091 6.66667H32.8057L34.5942 1.55556C34.785 1.07407 35.1308 0.694444 35.6316 0.416667C36.1324 0.138889 36.6927 0 37.3128 0C38.2189 0 38.9343 0.287037 39.459 0.861111C39.9836 1.43519 40.1267 2.05556 39.8882 2.72222L27.154 38.4444C26.9633 38.9259 26.6294 39.3056 26.1525 39.5833C25.6755 39.8611 25.1271 40 24.507 40C23.5532 40 22.8139 39.713 22.2893 39.1389C21.7647 38.5648 21.6216 37.9444 21.8601 37.2778L23.2909 33.3333H7.19428L5.40577 38.4444C5.21499 38.9259 4.86922 39.3056 4.36843 39.5833C3.86765 39.8611 3.30725 40 2.68723 40ZM12.7744 17.7778H28.7995L31.1603 11.1111H15.1353L12.7744 17.7778ZM8.83971 28.8889H24.8647L27.2256 22.2222H11.2005L8.83971 28.8889Z" fill="currentColor"/>
</svg>
