<svg width="34" height="34" viewBox="0 0 34 34" fill="none" xmlns="http://www.w3.org/2000/svg">
<path d="M9.32334 16.9454C8.96916 16.5909 8.48868 16.3916 7.98761 16.3915C7.48654 16.3913 7.00592 16.5902 6.65149 16.9444C6.29705 17.2986 6.09783 17.7792 6.09765 18.2803C6.09748 18.7814 6.29636 19.2621 6.65054 19.6166L7.3551 20.3193L0.566379 27.1088C0.203728 27.4716 0 27.9635 0 28.4765C0 28.9895 0.203728 29.4815 0.566379 29.8442L4.1553 33.4336C4.51803 33.7963 5.00995 34 5.52287 34C6.03579 34 6.52771 33.7963 6.89043 33.4336L13.6773 26.646L14.3799 27.3487C14.5554 27.5241 14.7638 27.6632 14.993 27.7581C15.2223 27.853 15.468 27.9018 15.7161 27.9017C15.9642 27.9016 16.2098 27.8526 16.439 27.7576C16.6682 27.6625 16.8764 27.5233 17.0518 27.3478C17.2272 27.1723 17.3663 26.9639 17.4611 26.7346C17.556 26.5054 17.6048 26.2596 17.6047 26.0115C17.6046 25.7634 17.5556 25.5177 17.4606 25.2885C17.3656 25.0593 17.2264 24.851 17.0509 24.6756L9.32334 16.9454Z" fill="white"/>
<path d="M21.3443 0L11.3615 14.9769L19.0229 22.641L34 12.6571V0H21.3443Z" fill="white"/>
</svg>
