<svg width="32" height="27" viewBox="0 0 32 27" fill="currentColor" xmlns="http://www.w3.org/2000/svg">
<path d="M3.2 27C2.32 27 1.56667 26.6695 0.94 26.0086C0.313333 25.3477 0 24.5531 0 23.625V3.375C0 2.44688 0.313333 1.65234 0.94 0.991406C1.56667 0.330469 2.32 0 3.2 0H28.8C29.68 0 30.4333 0.330469 31.06 0.991406C31.6867 1.65234 32 2.44688 32 3.375V23.625C32 24.5531 31.6867 25.3477 31.06 26.0086C30.4333 26.6695 29.68 27 28.8 27H3.2ZM16 15.1875L3.2 6.75V23.625H28.8V6.75L16 15.1875ZM16 11.8125L28.8 3.375H3.2L16 11.8125ZM3.2 6.75V3.375V23.625V6.75Z" fill="currentColor"/>
</svg>
