<svg width="34" height="34" viewBox="0 0 34 34" fill="none" xmlns="http://www.w3.org/2000/svg">
<path d="M17 11.05L9.35 18.7L11.7725 21.08L17 15.8525L22.2275 21.08L24.65 18.7L17 11.05ZM17 0C19.3517 0 21.5617 0.446251 23.63 1.33875C25.6983 2.23125 27.4975 3.4425 29.0275 4.9725C30.5575 6.5025 31.7687 8.30167 32.6612 10.37C33.5538 12.4383 34 14.6483 34 17C34 19.3517 33.5538 21.5617 32.6612 23.63C31.7687 25.6983 30.5575 27.4975 29.0275 29.0275C27.4975 30.5575 25.6983 31.7687 23.63 32.6612C21.5617 33.5538 19.3517 34 17 34C14.6483 34 12.4383 33.5538 10.37 32.6612C8.30167 31.7687 6.5025 30.5575 4.9725 29.0275C3.4425 27.4975 2.23125 25.6983 1.33875 23.63C0.446251 21.5617 0 19.3517 0 17C0 14.6483 0.446251 12.4383 1.33875 10.37C2.23125 8.30167 3.4425 6.5025 4.9725 4.9725C6.5025 3.4425 8.30167 2.23125 10.37 1.33875C12.4383 0.446251 14.6483 0 17 0ZM17 3.4C13.2033 3.4 9.9875 4.7175 7.3525 7.3525C4.7175 9.9875 3.4 13.2033 3.4 17C3.4 20.7967 4.7175 24.0125 7.3525 26.6475C9.9875 29.2825 13.2033 30.6 17 30.6C20.7967 30.6 24.0125 29.2825 26.6475 26.6475C29.2825 24.0125 30.6 20.7967 30.6 17C30.6 13.2033 29.2825 9.9875 26.6475 7.3525C24.0125 4.7175 20.7967 3.4 17 3.4Z" fill="white"/>
</svg>
