<svg width="34" height="34" viewBox="0 0 34 34" fill="none" xmlns="http://www.w3.org/2000/svg">
<g clip-path="url(#clip0_611_545)">
<path d="M31.1667 30.1042H29.3959V15.5833C29.3959 12.155 27.5117 10.2708 24.0834 10.2708H18.0625V8.52832C18.8842 8.72665 19.7059 8.83998 20.5417 8.83998C21.8734 8.83998 23.205 8.58498 24.48 8.07498C24.8767 7.91915 25.1459 7.52248 25.1459 7.08332V2.83332C25.1459 2.47915 24.9759 2.15332 24.6784 1.95498C24.3809 1.75665 24.0125 1.71415 23.6867 1.84165C21.6609 2.64915 19.4225 2.64915 17.3967 1.84165C17.0709 1.71415 16.7025 1.75665 16.405 1.95498C16.1075 2.15332 15.9375 2.47915 15.9375 2.83332V7.08332V10.2708H9.91671C6.48837 10.2708 4.60421 12.155 4.60421 15.5833V30.1042H2.83337C2.25254 30.1042 1.77087 30.5858 1.77087 31.1667C1.77087 31.7475 2.25254 32.2292 2.83337 32.2292H5.66671H28.3334H31.1667C31.7475 32.2292 32.2292 31.7475 32.2292 31.1667C32.2292 30.5858 31.7475 30.1042 31.1667 30.1042ZM10.2567 30.1042H6.72921V18.0625H10.2567V30.1042ZM15.9234 30.1042H12.3817V18.0625H15.9234V30.1042ZM21.59 30.1042H18.0484V18.0625H21.59V30.1042ZM27.2709 30.1042H23.715V18.0625H27.2709V30.1042Z" fill="white"/>
</g>
<defs>
<clipPath id="clip0_611_545">
<rect width="34" height="34" fill="white"/>
</clipPath>
</defs>
</svg>
