<svg width="34" height="34" viewBox="0 0 34 34" fill="none" xmlns="http://www.w3.org/2000/svg">
<path d="M30.9909 13.5071C33.9095 10.9432 34.3972 8.02966 33.7445 5.57363C33.7252 5.37853 33.677 5.21464 33.5011 5.09112L32.9137 4.62522C32.8119 4.53391 32.6747 4.48822 32.5376 4.50177C32.3993 4.51425 32.2739 4.58371 32.1924 4.69162L28.814 8.94368C28.7197 9.06925 28.5675 9.14084 28.4078 9.13566L27.1816 9.22285C27.0766 9.21973 26.9747 9.1834 26.8922 9.11906L24.5235 7.17561C24.427 7.09984 24.3638 6.99193 24.3477 6.8726L24.2008 5.79762C24.1836 5.67935 24.2147 5.55896 24.2876 5.46247L27.4506 1.30272C27.5942 1.11074 27.5664 0.846176 27.3884 0.685341L26.621 0.105349C26.4709 -0.030584 26.3005 -0.0108614 26.0679 0.0317049C23.8835 0.449864 20.1535 2.49703 19.2071 5.3276C18.3732 7.81889 18.6636 9.57553 18.6636 9.57553C18.6636 10.9794 18.1867 12.3324 17.6004 12.901L1.12001 28.2171C1.08784 28.2462 1.05677 28.2742 1.02569 28.3043C-0.335551 29.6221 -0.333424 31.7616 0.981722 33.0337C2.29687 34.3068 4.53911 34.3411 5.90035 33.0223C5.9636 32.9611 6.02472 32.8978 6.08152 32.8324L21.9736 16.2018C23.9286 14.5177 27.799 16.3128 30.9909 13.5071Z" fill="white"/>
</svg>
