<svg width="34" height="34" viewBox="0 0 34 34" fill="none" xmlns="http://www.w3.org/2000/svg">
<path d="M27.8182 9.35C28.2561 9.35 28.6231 9.18708 28.9193 8.86125C29.2155 8.53542 29.3636 8.13167 29.3636 7.65C29.3636 7.16833 29.2155 6.76458 28.9193 6.43875C28.6231 6.11292 28.2561 5.95 27.8182 5.95C27.3803 5.95 27.0133 6.11292 26.717 6.43875C26.4208 6.76458 26.2727 7.16833 26.2727 7.65C26.2727 8.13167 26.4208 8.53542 26.717 8.86125C27.0133 9.18708 27.3803 9.35 27.8182 9.35ZM21.6364 9.35C22.0742 9.35 22.4413 9.18708 22.7375 8.86125C23.0337 8.53542 23.1818 8.13167 23.1818 7.65C23.1818 7.16833 23.0337 6.76458 22.7375 6.43875C22.4413 6.11292 22.0742 5.95 21.6364 5.95C21.1985 5.95 20.8314 6.11292 20.5352 6.43875C20.239 6.76458 20.0909 7.16833 20.0909 7.65C20.0909 8.13167 20.239 8.53542 20.5352 8.86125C20.8314 9.18708 21.1985 9.35 21.6364 9.35ZM20.8636 15.13H28.5909C28.5909 14.1383 28.1981 13.3521 27.4125 12.7713C26.6269 12.1904 25.7318 11.9 24.7273 11.9C23.7227 11.9 22.8277 12.1904 22.042 12.7713C21.2564 13.3521 20.8636 14.1383 20.8636 15.13ZM9.27273 34C6.69697 34 4.50758 33.0083 2.70455 31.025C0.901515 29.0417 0 26.6333 0 23.8L0 11.9H18.5455V23.8C18.5455 26.6333 17.6439 29.0417 15.8409 31.025C14.0379 33.0083 11.8485 34 9.27273 34ZM9.27273 30.6C10.9727 30.6 12.428 29.9342 13.6386 28.6025C14.8492 27.2708 15.4545 25.67 15.4545 23.8V15.3H3.09091V23.8C3.09091 25.67 3.69621 27.2708 4.90682 28.6025C6.11742 29.9342 7.57273 30.6 9.27273 30.6ZM24.7273 22.1C24.0576 22.1 23.3943 22.0221 22.7375 21.8663C22.0807 21.7104 21.4561 21.4767 20.8636 21.165V17.17C21.4303 17.6517 22.042 18.0271 22.6989 18.2962C23.3557 18.5654 24.0318 18.7 24.7273 18.7C26.4273 18.7 27.8826 18.0342 29.0932 16.7025C30.3038 15.3708 30.9091 13.77 30.9091 11.9V3.4H18.5455V9.35H15.4545V0L34 0V11.9C34 14.7333 33.0985 17.1417 31.2955 19.125C29.4924 21.1083 27.303 22.1 24.7273 22.1ZM6.18182 21.25C6.6197 21.25 6.98674 21.0871 7.28295 20.7613C7.57917 20.4354 7.72727 20.0317 7.72727 19.55C7.72727 19.0683 7.57917 18.6646 7.28295 18.3388C6.98674 18.0129 6.6197 17.85 6.18182 17.85C5.74394 17.85 5.37689 18.0129 5.08068 18.3388C4.78447 18.6646 4.63636 19.0683 4.63636 19.55C4.63636 20.0317 4.78447 20.4354 5.08068 20.7613C5.37689 21.0871 5.74394 21.25 6.18182 21.25ZM12.3636 21.25C12.8015 21.25 13.1686 21.0871 13.4648 20.7613C13.761 20.4354 13.9091 20.0317 13.9091 19.55C13.9091 19.0683 13.761 18.6646 13.4648 18.3388C13.1686 18.0129 12.8015 17.85 12.3636 17.85C11.9258 17.85 11.5587 18.0129 11.2625 18.3388C10.9663 18.6646 10.8182 19.0683 10.8182 19.55C10.8182 20.0317 10.9663 20.4354 11.2625 20.7613C11.5587 21.0871 11.9258 21.25 12.3636 21.25ZM9.27273 27.03C10.2773 27.03 11.1723 26.7396 11.958 26.1588C12.7436 25.5779 13.1364 24.7917 13.1364 23.8H5.40909C5.40909 24.7917 5.80189 25.5779 6.5875 26.1588C7.37311 26.7396 8.26818 27.03 9.27273 27.03Z" fill="white"/>
</svg>
