<svg width="20" height="24" viewBox="0 0 20 24" fill="none" xmlns="http://www.w3.org/2000/svg">
<path d="M5.5 3.2V16.4C5.5 16.9835 5.73705 17.5431 6.15901 17.9557C6.58097 18.3682 7.15326 18.6 7.75 18.6H16.75C17.3467 18.6 17.919 18.3682 18.341 17.9557C18.7629 17.5431 19 16.9835 19 16.4V6.76621C18.9999 6.47312 18.94 6.183 18.8237 5.91288C18.7074 5.64275 18.5371 5.39807 18.3227 5.19321L14.5934 1.627C14.173 1.22512 13.6085 1.00007 13.0206 1H7.75C7.15326 1 6.58097 1.23179 6.15901 1.64437C5.73705 2.05695 5.5 2.61653 5.5 3.2Z" stroke="currentColor" stroke-width="2" stroke-linecap="round" stroke-linejoin="round"/>
<path d="M14.5 18.6V20.8C14.5 21.3834 14.2629 21.943 13.841 22.3556C13.419 22.7682 12.8467 23 12.25 23H3.25C2.65326 23 2.08097 22.7682 1.65901 22.3556C1.23705 21.943 1 21.3834 1 20.8V8.69994C1 8.11647 1.23705 7.55689 1.65901 7.14431C2.08097 6.73172 2.65326 6.49994 3.25 6.49994H5.49999" stroke="currentColor" stroke-width="2" stroke-linecap="round" stroke-linejoin="round"/>
</svg>
