<svg width="20" height="20" viewBox="0 0 20 20" fill="none" xmlns="http://www.w3.org/2000/svg">
<path d="M0.397781 0.397769C0.928098 -0.132549 1.78791 -0.132549 2.31823 0.397769L19.6023 17.6818C20.1326 18.2121 20.1326 19.0719 19.6023 19.6023C19.0719 20.1326 18.2121 20.1326 17.6818 19.6023L0.397782 2.31822C-0.132536 1.7879 -0.132536 0.928086 0.397781 0.397769Z" fill="currentColor"/>
<path d="M0.397738 19.6022C-0.132579 19.0719 -0.132579 18.2121 0.397738 17.6818L17.6818 0.397738C18.2121 -0.132579 19.0719 -0.132579 19.6022 0.397738C20.1325 0.928055 20.1325 1.78787 19.6022 2.31819L2.31819 19.6022C1.78787 20.1325 0.928055 20.1325 0.397738 19.6022Z" fill="currentColor"/>
</svg>
