<svg width="24" height="24" viewBox="0 0 24 24" fill="none" xmlns="http://www.w3.org/2000/svg">
<title>Галлерея</title>
<path d="M4.22222 24C3.61111 24 3.08815 23.7865 2.65333 23.3596C2.21852 22.9327 2.00074 22.4189 2 21.8182V6.54545C2 5.94545 2.21778 5.432 2.65333 5.00509C3.08889 4.57818 3.61185 4.36436 4.22222 4.36364H7.55556L12 0L16.4444 4.36364H19.7778C20.3889 4.36364 20.9122 4.57745 21.3478 5.00509C21.7833 5.43273 22.0007 5.94618 22 6.54545V21.8182C22 22.4182 21.7826 22.932 21.3478 23.3596C20.913 23.7873 20.3896 24.0007 19.7778 24H4.22222ZM4.22222 21.8182H19.7778V6.54545H4.22222V21.8182ZM5.33333 19.6364H18.6667L14.5 14.1818L11.1667 18.5455L8.66667 15.2727L5.33333 19.6364ZM9.88889 4.36364H14.1111L12 2.29091L9.88889 4.36364Z" fill="currentColor"/>
</svg>
