<svg width="20" height="20" viewBox="0 0 20 20" fill="none" xmlns="http://www.w3.org/2000/svg">
<path d="M5.71429 2.85714C5.71429 4.4351 4.43511 5.71429 2.85715 5.71429C1.27919 5.71429 0 4.4351 0 2.85714C0 1.27919 1.27919 0 2.85715 0C4.43511 0 5.71429 1.27919 5.71429 2.85714Z" fill="currentColor"/>
<path d="M19.9999 17.1428C19.9999 18.7208 18.7208 20 17.1428 20C15.5648 20 14.2856 18.7208 14.2856 17.1428C14.2856 15.5648 15.5648 14.2857 17.1428 14.2857C18.7208 14.2857 19.9999 15.5648 19.9999 17.1428Z" fill="currentColor"/>
<path d="M11.4285 5C11.4285 3.81653 12.3879 2.85714 13.5713 2.85714C14.7548 2.85714 15.7142 3.81653 15.7142 5V11.4286H18.5713V5C18.5713 2.23857 16.3328 0 13.5713 0C10.8099 0 8.57133 2.23857 8.57133 5V15C8.57133 16.1834 7.61195 17.1429 6.42847 17.1429C5.245 17.1429 4.28561 16.1834 4.28561 15V8.57143H1.42847V15C1.42847 17.7614 3.66704 20 6.42847 20C9.18991 20 11.4285 17.7614 11.4285 15V5Z" fill="currentColor"/>
</svg>
