<svg width="30" height="30" viewBox="0 0 30 30" fill="none" xmlns="http://www.w3.org/2000/svg">
<path d="M28.6363 13.6363H23.1818C22.4287 13.6363 21.8181 14.2469 21.8181 15V16.3637H13.6363V8.1818H15C15.7531 8.1818 16.3637 7.57125 16.3637 6.81814V1.36365C16.3637 0.610547 15.7531 0 15 0H1.36365C0.610547 0 0 0.610547 0 1.36365V6.8182C0 7.57131 0.610547 8.18186 1.36365 8.18186H2.7273V21.0382C2.7273 24.4818 5.5183 27.2728 8.96186 27.2728H21.8182V28.6364C21.8182 29.3895 22.4287 30.0001 23.1819 30.0001H28.6364C29.3895 30 30 29.3895 30 28.6363V15C30 14.2469 29.3895 13.6363 28.6363 13.6363ZM2.72725 2.72725H13.6363V5.45449H12.2727H4.0909H2.72725V2.72725ZM8.9618 24.5454C7.02445 24.5454 5.45455 22.9755 5.45455 21.0382V8.1818H10.9091V17.7272C10.9091 18.4804 11.5196 19.0909 12.2728 19.0909H21.8182V24.5454H8.9618ZM27.2728 27.2728H24.5455V25.9091V17.7272V16.3636H27.2728V27.2728Z" fill="#808080"/>
</svg>
