<svg width="23" height="20" viewBox="0 0 23 20" fill="none" xmlns="http://www.w3.org/2000/svg">
<path d="M6.40375 6.5625L7.3925 0H2.25L0.10125 5.625C0.035 5.825 0 6.0325 0 6.25C0 7.63 1.4375 8.75 3.21375 8.75C4.85125 8.75 6.205 7.795 6.40375 6.5625ZM11.25 8.75C13.025 8.75 14.4637 7.63 14.4637 6.25C14.4637 6.19875 14.46 6.1475 14.4575 6.09875L13.8212 0H8.67875L8.04125 6.09375C8.03829 6.14578 8.03663 6.19788 8.03625 6.25C8.03625 7.63 9.475 8.75 11.25 8.75ZM17.5 10.0575V15H5V10.065C4.4525 10.2625 3.85 10.375 3.21375 10.375C2.97 10.375 2.73375 10.3463 2.5 10.3138V18.25C2.5 19.2125 3.28625 20 4.2475 20H18.25C19.2125 20 20 19.2113 20 18.25V10.315C19.7637 10.3513 19.5253 10.3717 19.2863 10.3762C18.6767 10.3756 18.0721 10.2677 17.5 10.0575ZM22.4 5.625L20.2487 0H15.1075L16.095 6.5525C16.2875 7.79 17.6413 8.75 19.2863 8.75C21.0613 8.75 22.5 7.63 22.5 6.25C22.5 6.0325 22.465 5.825 22.4 5.625Z" fill="currentColor"/>
</svg>
