<svg width="22" height="25" viewBox="0 0 22 25" fill="none" xmlns="http://www.w3.org/2000/svg">
<path d="M18.5 4.83356L17.4989 20.1834C17.4113 21.5277 17.3674 22.2 17.0834 22.7097C16.8332 23.1584 16.456 23.5191 16.0014 23.7444C15.485 24.0002 14.8259 24.0002 13.5077 24.0002H8.49221C7.17409 24.0002 6.51502 24.0002 5.99861 23.7444C5.54396 23.5191 5.16674 23.1584 4.91665 22.7097C4.63259 22.2 4.58875 21.5277 4.50107 20.1834L3.5 4.83356M1 4.83356H21M16 4.83356L15.6617 3.7961C15.3339 2.79071 15.1699 2.28802 14.8659 1.91637C14.5974 1.58817 14.2526 1.33414 13.8631 1.17756C13.422 1.00023 12.9037 1.00023 11.867 1.00023H10.133C9.09625 1.00023 8.578 1.00023 8.13689 1.17756C7.7474 1.33414 7.4026 1.58817 7.13411 1.91637C6.83006 2.28802 6.66615 2.79071 6.3383 3.7961L6 4.83356M13.5 9.94467V18.8891M8.5 9.94467V18.8891" stroke="currentColor" stroke-width="2" stroke-linecap="round" stroke-linejoin="round"/>
</svg>
