<svg width="30" height="30" viewBox="0 0 30 30" fill="none" xmlns="http://www.w3.org/2000/svg">
<path d="M13.4375 0.548441L0.9375 10.5485C0.645158 10.7826 0.409136 11.0793 0.246868 11.4168C0.0846006 11.7543 0.000234026 12.124 0 12.4985L0 27.4986L0.0150001 27.7786C0.0648539 28.2232 0.233084 28.6462 0.502144 29.0036C0.771204 29.361 1.13124 29.6397 1.54468 29.8105C1.95813 29.9814 2.40985 30.0381 2.85271 29.9749C3.29558 29.9117 3.71337 29.7308 4.0625 29.4511L15 20.6985L25.9375 29.4486C26.3051 29.7429 26.7483 29.9274 27.2161 29.9809C27.6839 30.0343 28.1573 29.9546 28.5818 29.7508C29.0063 29.5471 29.3647 29.2276 29.6155 28.8291C29.8664 28.4307 29.9997 27.9695 30 27.4986V12.4985C29.9998 12.124 29.9154 11.7543 29.7531 11.4168C29.5909 11.0793 29.3548 10.7826 29.0625 10.5485L16.5625 0.548441C16.1191 0.19343 15.568 0 15 0C14.432 0 13.8809 0.19343 13.4375 0.548441Z" fill="currentColor"/>
</svg>
